<mxfile host="app.diagrams.net" modified="2022-05-28T22:12:44.550Z" agent="5.0 (Windows NT 10.0; Win64; x64) AppleWebKit/537.36 (KHTML, like Gecko) Chrome/84.0.4147.105 Safari/537.36" etag="nTa1pFIKzHjPpmqhVHNl" version="18.1.3" type="github">
  <diagram id="VjC9CyZcjNJfU-AKAAlW" name="Page-1">
    <mxGraphModel dx="1303" dy="792" grid="1" gridSize="10" guides="1" tooltips="1" connect="1" arrows="1" fold="1" page="1" pageScale="1" pageWidth="827" pageHeight="1169" math="0" shadow="0">
      <root>
        <mxCell id="0" />
        <mxCell id="1" parent="0" />
        <mxCell id="yqGg9QkUEFifEMVZDtHT-7" style="edgeStyle=orthogonalEdgeStyle;rounded=0;jumpSize=10;orthogonalLoop=1;jettySize=auto;html=1;exitX=1;exitY=0.5;exitDx=0;exitDy=0;entryX=0;entryY=0.5;entryDx=0;entryDy=0;shadow=1;fontSize=20;endArrow=classicThin;endFill=1;strokeWidth=2;" edge="1" parent="1" source="yqGg9QkUEFifEMVZDtHT-1" target="yqGg9QkUEFifEMVZDtHT-2">
          <mxGeometry relative="1" as="geometry" />
        </mxCell>
        <mxCell id="yqGg9QkUEFifEMVZDtHT-1" value="DNA Barcoding" style="rounded=1;whiteSpace=wrap;html=1;fontSize=20;strokeWidth=2;shadow=1;" vertex="1" parent="1">
          <mxGeometry x="40" y="180" width="150" height="60" as="geometry" />
        </mxCell>
        <mxCell id="yqGg9QkUEFifEMVZDtHT-8" style="edgeStyle=orthogonalEdgeStyle;rounded=0;jumpSize=10;orthogonalLoop=1;jettySize=auto;html=1;exitX=1;exitY=0.5;exitDx=0;exitDy=0;entryX=0;entryY=0.5;entryDx=0;entryDy=0;shadow=1;fontSize=20;endArrow=classicThin;endFill=1;strokeWidth=2;" edge="1" parent="1" source="yqGg9QkUEFifEMVZDtHT-2" target="yqGg9QkUEFifEMVZDtHT-3">
          <mxGeometry relative="1" as="geometry" />
        </mxCell>
        <mxCell id="yqGg9QkUEFifEMVZDtHT-2" value="Dilution 1" style="rounded=1;whiteSpace=wrap;html=1;fontSize=20;strokeWidth=2;shadow=1;" vertex="1" parent="1">
          <mxGeometry x="250" y="180" width="150" height="60" as="geometry" />
        </mxCell>
        <mxCell id="yqGg9QkUEFifEMVZDtHT-9" style="edgeStyle=orthogonalEdgeStyle;rounded=0;jumpSize=10;orthogonalLoop=1;jettySize=auto;html=1;exitX=1;exitY=0.5;exitDx=0;exitDy=0;entryX=0;entryY=0.5;entryDx=0;entryDy=0;shadow=1;fontSize=20;endArrow=classicThin;endFill=1;strokeWidth=2;" edge="1" parent="1" source="yqGg9QkUEFifEMVZDtHT-3" target="yqGg9QkUEFifEMVZDtHT-4">
          <mxGeometry relative="1" as="geometry" />
        </mxCell>
        <mxCell id="yqGg9QkUEFifEMVZDtHT-3" value="DNA Amplification" style="rounded=1;whiteSpace=wrap;html=1;fontSize=20;strokeWidth=2;shadow=1;" vertex="1" parent="1">
          <mxGeometry x="464" y="180" width="180" height="60" as="geometry" />
        </mxCell>
        <mxCell id="yqGg9QkUEFifEMVZDtHT-10" style="edgeStyle=orthogonalEdgeStyle;rounded=0;jumpSize=10;orthogonalLoop=1;jettySize=auto;html=1;entryX=0;entryY=0.5;entryDx=0;entryDy=0;shadow=1;fontSize=20;endArrow=classicThin;endFill=1;strokeWidth=2;" edge="1" parent="1" source="yqGg9QkUEFifEMVZDtHT-4" target="yqGg9QkUEFifEMVZDtHT-5">
          <mxGeometry relative="1" as="geometry" />
        </mxCell>
        <mxCell id="yqGg9QkUEFifEMVZDtHT-4" value="Dilution 2" style="rounded=1;whiteSpace=wrap;html=1;fontSize=20;strokeWidth=2;shadow=1;" vertex="1" parent="1">
          <mxGeometry x="710" y="180" width="150" height="60" as="geometry" />
        </mxCell>
        <mxCell id="yqGg9QkUEFifEMVZDtHT-5" value="Sequencing" style="rounded=1;whiteSpace=wrap;html=1;fontSize=20;strokeWidth=2;shadow=1;" vertex="1" parent="1">
          <mxGeometry x="930" y="180" width="170" height="60" as="geometry" />
        </mxCell>
      </root>
    </mxGraphModel>
  </diagram>
</mxfile>
